# Blender v3.2.2 OBJ File: ''
# www.blender.org
mtllib modifiedTree.mtl
o treeHigh
v -0.100644 2.452416 0.100644
v 0.000000 2.972761 0.000000
v -0.142332 2.452416 0.000000
v 0.000000 2.452416 0.142332
v 0.100644 2.452416 0.100644
v 0.142332 2.452416 0.000000
v 0.100644 2.452416 -0.100643
v 0.000000 2.452416 -0.142331
v -0.100644 2.452416 -0.100643
v 0.000000 1.331440 -0.363165
v 0.361685 1.045440 -0.361685
v -0.000000 1.045440 -0.511500
v 0.256796 1.331440 -0.256796
v -0.409200 1.519540 0.000000
v -0.205437 1.748340 0.205437
v -0.290532 1.748340 0.000000
v -0.289348 1.519540 0.289348
v -0.200467 2.314080 0.000000
v -0.141752 2.314080 0.141752
v -0.200467 2.106551 0.000000
v -0.098721 2.314080 0.098721
v -0.139612 2.314080 0.000000
v -0.141752 2.106551 0.141752
v 0.000000 2.314080 0.139612
v 0.000000 2.106551 0.200467
v 0.141752 2.314080 -0.141751
v 0.000000 2.314080 -0.200467
v -0.199650 1.898160 0.199651
v 0.000000 1.898160 0.282348
v 0.000000 2.314080 0.200467
v 0.141752 2.314080 0.141752
v 0.000000 1.331440 0.363165
v -0.361685 1.045440 0.361685
v -0.000000 1.045440 0.511500
v -0.256796 1.331440 0.256797
v 0.000000 1.748340 0.290532
v -0.000000 1.519540 0.409200
v 0.205437 1.748340 0.205437
v 0.289348 1.519540 0.289348
v 0.000000 1.748340 -0.290532
v 0.289348 1.519540 -0.289348
v -0.000000 1.519540 -0.409200
v 0.205437 1.748340 -0.205437
v 0.164431 1.898160 -0.164431
v 0.290532 1.748340 0.000000
v 0.232541 1.898160 0.000000
v -0.098721 2.314080 -0.098720
v -0.141752 2.106551 -0.141751
v -0.141752 2.314080 -0.141751
v 0.256796 1.331440 0.256797
v 0.511500 1.045440 0.000000
v 0.363165 1.331440 0.000000
v 0.361685 1.045440 0.361685
v 0.000000 1.898160 0.232541
v -0.164431 1.898160 0.164432
v 0.141752 2.106551 -0.141751
v 0.282348 1.898160 0.000000
v 0.199650 1.898160 -0.199650
v 0.200467 2.106551 0.000000
v 0.200467 2.314080 0.000000
v 0.409200 1.519540 0.000000
v -0.511500 1.045440 0.000000
v -0.363165 1.331440 0.000000
v -0.205437 1.748340 -0.205437
v -0.289348 1.519540 -0.289348
v 0.098721 2.314080 -0.098720
v 0.139612 2.314080 0.000000
v 0.000000 1.519540 -0.290356
v 0.205313 1.519540 -0.205313
v 0.098721 2.314080 0.098721
v 0.141752 2.106551 0.141752
v 0.164431 1.898160 0.164432
v -0.164431 1.898160 -0.164431
v -0.232541 1.898160 0.000000
v -0.282348 1.898160 0.000000
v -0.205313 1.519540 -0.205313
v -0.256796 1.331440 -0.256796
v -0.290357 1.519540 0.000000
v -0.361685 1.045440 -0.361685
v 0.205313 1.519540 0.205313
v 0.000000 1.519540 0.290357
v -0.199650 1.898160 -0.199650
v 0.000000 2.106551 -0.200467
v 0.000000 1.898160 -0.282348
v 0.199650 1.898160 0.199651
v -0.205313 1.519540 0.205313
v 0.000000 1.898160 -0.232540
v 0.000000 2.314080 -0.139612
v 0.290357 1.519540 0.000000
v 0.055581 1.045440 0.055581
v -0.055581 1.045440 0.055581
v 0.055581 1.045440 -0.055581
v -0.055581 1.045440 -0.055581
v 0.093808 0.176480 0.093808
v -0.144320 -0.000000 0.144320
v 0.144320 -0.000000 0.144320
v -0.093808 0.176480 0.093808
v -0.093808 0.176480 -0.093808
v -0.144320 0.000000 -0.144320
v 0.144320 0.000000 -0.144320
v 0.093808 0.176480 -0.093808
v -0.182520 0.344255 -0.004920
v -0.180340 0.393807 -0.044600
v -0.182520 0.344255 -0.044600
v -0.180340 0.393807 -0.004920
v -0.083765 0.404773 -0.056760
v -0.087281 0.324850 -0.056760
v -0.083765 0.404773 0.007240
v -0.087281 0.324850 0.007240
v 0.022686 0.764167 0.180063
v -0.028514 0.746457 0.068734
v 0.035486 0.746457 0.068734
v -0.015714 0.764167 0.180063
v -0.028514 0.810395 0.065921
v 0.022686 0.802530 0.178376
v 0.035486 0.810395 0.065921
v -0.015714 0.802530 0.178376
vt 2.144408 92.340569
vt -0.000000 113.470596
vt -2.144408 92.340569
vt -2.144408 92.340569
vt 2.144408 92.340569
vt -2.144408 92.340569
vt 2.144408 92.340569
vt -2.144408 92.340569
vt 2.144408 92.340569
vt -2.144408 92.340569
vt 2.144408 92.340569
vt -2.144408 92.340569
vt 2.144408 92.340569
vt -2.144408 92.340569
vt 2.144408 92.340569
vt -2.144408 92.340569
vt 2.144408 92.340569
vt 5.471544 41.563919
vt -7.706400 29.078150
vt 7.706400 29.078150
vt -5.471544 41.563919
vt -6.165121 47.518749
vt 4.377235 57.507370
vt -4.377235 57.507370
vt 6.165121 47.518749
vt -3.020293 82.289772
vt 2.144408 88.132179
vt -2.144408 88.132179
vt 3.020293 82.289772
vt -3.020293 78.142776
vt 2.103433 86.607742
vt -2.103433 86.607742
vt 3.020293 78.142776
vt 2.103433 86.607742
vt -3.020293 78.142776
vt 3.020293 78.142776
vt -2.103433 86.607742
vt 2.144408 88.132179
vt -3.020293 82.289772
vt 3.020293 82.289772
vt -2.144408 88.132179
vt 3.020293 75.469429
vt -4.253933 66.741211
vt 4.253933 66.741211
vt -3.020293 75.469429
vt 2.144408 88.132179
vt -3.020293 82.289772
vt 3.020293 82.289772
vt -2.144408 88.132179
vt 5.471544 41.563919
vt -7.706400 29.078150
vt 7.706400 29.078150
vt -5.471544 41.563919
vt 4.377235 57.507370
vt -6.165121 47.518749
vt 6.165121 47.518749
vt -4.377235 57.507370
vt 4.377235 57.507370
vt -6.165121 47.518749
vt 6.165121 47.518749
vt -4.377235 57.507370
vt 4.377235 57.507370
vt -6.165121 47.518749
vt 6.165121 47.518749
vt -4.377235 57.507370
vt 3.503524 67.518547
vt -4.377235 61.254318
vt 4.377235 61.254318
vt -3.503524 67.518547
vt 3.020293 78.142776
vt -2.103433 86.607742
vt -3.020293 78.142776
vt 2.103433 86.607742
vt 2.144408 88.132179
vt -3.020293 82.289772
vt 3.020293 82.289772
vt -2.144408 88.132179
vt -5.471544 41.563919
vt 7.706400 29.078150
vt 5.471544 41.563919
vt -7.706400 29.078150
vt 3.020293 82.289772
vt -2.144408 88.132179
vt -3.020293 82.289772
vt 2.144408 88.132179
vt 3.503524 67.518547
vt -4.377235 61.254318
vt 4.377235 61.254318
vt -3.503524 67.518547
vt 3.020293 75.469429
vt -4.253933 66.741211
vt 4.253933 66.741211
vt -3.020293 75.469429
vt 2.144408 88.132179
vt -3.020293 82.289772
vt 3.020293 82.289772
vt -2.144408 88.132179
vt 4.377235 57.507370
vt -6.165121 47.518749
vt 6.165121 47.518749
vt -4.377235 57.507370
vt -7.706400 29.078150
vt 5.471544 41.563919
vt -5.471544 41.563919
vt 7.706400 29.078150
vt 6.165121 47.518749
vt -4.377235 57.507370
vt -6.165121 47.518749
vt 4.377235 57.507370
vt 2.103433 86.607742
vt -3.020293 78.142776
vt 3.020293 78.142776
vt -2.103433 86.607742
vt 4.374594 52.774620
vt -5.471544 44.909828
vt 5.471544 44.909828
vt -4.374594 52.774620
vt 2.103433 86.607742
vt -3.020293 78.142776
vt 3.020293 78.142776
vt -2.103433 86.607742
vt 5.471544 41.563919
vt -7.706400 29.078150
vt 7.706400 29.078150
vt -5.471544 41.563919
vt 3.503524 67.518547
vt -4.377235 61.254318
vt 4.377235 61.254318
vt -3.503524 67.518547
vt 4.377235 61.254318
vt -3.503524 67.518547
vt -4.377235 61.254318
vt 3.503524 67.518547
vt -2.103433 86.607742
vt 3.020293 78.142776
vt 2.103433 86.607742
vt -3.020293 78.142776
vt -4.253933 66.741211
vt 3.020293 75.469429
vt -3.020293 75.469429
vt 4.253933 66.741211
vt -2.144408 88.132179
vt 3.020293 82.289772
vt 2.144408 88.132179
vt -3.020293 82.289772
vt 5.471544 44.909828
vt -4.374594 52.774620
vt -5.471544 44.909828
vt 4.374594 52.774620
vt 7.706400 29.078150
vt -5.471544 41.563919
vt -7.706400 29.078150
vt 5.471544 41.563919
vt 2.144408 88.132179
vt -3.020293 82.289772
vt 3.020293 82.289772
vt -2.144408 88.132179
vt -4.377235 57.507370
vt 6.165121 47.518749
vt 4.377235 57.507370
vt -6.165121 47.518749
vt 4.374594 52.774620
vt -5.471544 44.909828
vt 5.471544 44.909828
vt -4.374594 52.774620
vt 4.253933 66.741211
vt -3.020293 75.469429
vt -4.253933 66.741211
vt 3.020293 75.469429
vt 3.020293 75.469429
vt -4.253933 66.741211
vt 4.253933 66.741211
vt -3.020293 75.469429
vt -3.503524 67.518547
vt 4.377235 61.254318
vt 3.503524 67.518547
vt -4.377235 61.254318
vt 3.020293 75.469429
vt -4.253933 66.741211
vt 4.253933 66.741211
vt -3.020293 75.469429
vt 5.471544 44.909828
vt -4.374594 52.774620
vt -5.471544 44.909828
vt 4.374594 52.774620
vt 3.020293 75.469429
vt -4.253933 66.741211
vt 4.253933 66.741211
vt -3.020293 75.469429
vt 3.503524 67.518547
vt -4.377235 61.254318
vt 4.377235 61.254318
vt -3.503524 67.518547
vt 4.374594 52.774620
vt -5.471544 44.909828
vt 5.471544 44.909828
vt -4.374594 52.774620
vt -4.377235 61.254318
vt 3.503524 67.518547
vt -3.503524 67.518547
vt 4.377235 61.254318
vt 5.471544 41.563919
vt -7.706400 29.078150
vt 7.706400 29.078150
vt -5.471544 41.563919
vt 5.580773 5.580773
vt 5.580773 -5.580773
vt 7.892405 -0.000000
vt 5.496535 -0.000000
vt 3.886637 3.886637
vt 3.886637 -3.886637
vt 0.000000 -7.892405
vt 0.000000 -5.496535
vt 0.000000 7.892405
vt 0.000000 5.496535
vt -3.886637 3.886637
vt -5.580773 -5.580773
vt -5.580773 5.580773
vt -3.886637 -3.886637
vt -5.496535 -0.000000
vt -7.892405 -0.000000
vt 5.471544 41.563919
vt -7.706400 29.078150
vt 7.706400 29.078150
vt -5.471544 41.563919
vt 4.374594 52.774620
vt -5.471544 44.909828
vt 5.471544 44.909828
vt -4.374594 52.774620
vt 4.374594 52.774620
vt -5.471544 44.909828
vt 5.471544 44.909828
vt -4.374594 52.774620
vt 2.103433 86.607742
vt -3.020293 78.142776
vt 3.020293 78.142776
vt -2.103433 86.607742
vt 3.503524 67.518547
vt -4.377235 61.254318
vt 4.377235 61.254318
vt -3.503524 67.518547
vt -3.020293 75.469429
vt 4.253933 66.741211
vt 3.020293 75.469429
vt -4.253933 66.741211
vt 4.377235 57.507370
vt -6.165121 47.518749
vt 6.165121 47.518749
vt -4.377235 57.507370
vt 2.103433 86.607742
vt -3.020293 78.142776
vt 3.020293 78.142776
vt -2.103433 86.607742
vt 4.374594 52.774620
vt -5.471544 44.909828
vt 5.471544 44.909828
vt -4.374594 52.774620
vt 14.239570 14.239570
vt 14.239570 -14.239570
vt 20.137791 0.000000
vt -0.000000 20.137791
vt 2.188238 2.188238
vt -2.188238 2.188238
vt 2.188238 -2.188238
vt -0.000000 -20.137791
vt -14.239570 14.239570
vt -2.188238 -2.188238
vt -14.239570 -14.239570
vt -20.137791 0.000000
vt 7.860243 7.860243
vt 9.155150 -0.000000
vt 11.116060 -0.000000
vt 7.860243 -7.860243
vt 6.473669 6.473669
vt 6.473669 -6.473669
vt 0.000000 11.116060
vt 0.000000 9.155150
vt -6.473669 6.473669
vt -7.860243 7.860243
vt 0.000000 -11.116060
vt 0.000000 -9.155150
vt -6.473669 -6.473669
vt -7.860243 -7.860243
vt -9.155150 -0.000000
vt -11.116060 -0.000000
vt 8.083196 8.083196
vt -0.000000 16.110241
vt 0.000000 11.431370
vt -8.083196 8.083196
vt 11.391660 11.391660
vt -11.391660 11.391660
vt 11.431370 -0.000000
vt 16.110241 0.000000
vt 11.391660 -11.391660
vt 8.083196 -8.083196
vt -11.431370 -0.000000
vt -16.110241 0.000000
vt -11.391660 -11.391660
vt -8.083196 -8.083196
vt -0.000000 -16.110241
vt 0.000000 -11.431370
vt 3.693228 5.663541
vt -5.681890 -1.563486
vt 5.681890 -1.563486
vt -3.693228 5.663541
vt 5.681890 -1.563486
vt -3.693228 5.663541
vt -5.681890 -1.563486
vt 3.693228 5.663541
vt 3.693228 5.663541
vt -5.681890 -1.563486
vt 5.681890 -1.563486
vt -3.693228 5.663541
vt 3.693228 5.663541
vt -5.681890 -1.563486
vt 5.681890 -1.563486
vt -3.693228 5.663541
vt -5.681890 5.681890
vt 5.681890 -5.681890
vt 5.681890 5.681890
vt -5.681890 -5.681890
vt -0.193701 13.224430
vt -1.755905 15.177190
vt -1.755905 13.224430
vt -0.193701 15.177190
vt 6.908540 13.538530
vt 2.991201 15.921180
vt 3.128528 12.774560
vt 6.823397 15.489430
vt -1.755905 -5.305401
vt 0.285040 -1.478791
vt -2.234645 -1.478791
vt -0.193701 -5.305401
vt -3.235961 15.931860
vt -7.153299 13.549210
vt -3.373287 12.785250
vt -7.068157 15.500110
vt -0.193701 9.746995
vt -2.234645 5.920385
vt 0.285040 5.920385
vt -1.755905 9.746995
vt 2.188238 41.023121
vt -3.693228 6.779005
vt 3.693228 6.779005
vt -2.188238 41.023121
vt 2.188238 41.023121
vt -3.693228 6.779005
vt 3.693228 6.779005
vt -2.188238 41.023121
vt 0.893139 11.727520
vt -1.122609 7.289368
vt 1.397076 7.289368
vt -0.618672 11.727520
vt -1.122609 -0.362893
vt 0.893139 -4.801044
vt 1.397076 -0.362893
vt -0.618672 -4.801044
vt 2.561246 29.380600
vt 6.907146 31.588221
vt 2.451223 31.897881
vt 6.973160 30.077850
vt -6.876011 31.586861
vt -2.530111 29.379240
vt -2.420088 31.896521
vt -6.942025 30.076490
vt 0.893139 31.256491
vt -0.618672 29.744680
vt 0.893139 29.744680
vt -0.618672 31.256491
vt 0.285040 15.775610
vt 3.693228 6.779005
vt 2.188238 41.023121
vt -2.188238 41.023121
vt 0.285040 12.626010
vt -2.234645 15.775610
vt -2.234645 12.626010
vt -3.693228 6.779005
vt 1.397076 29.240740
vt 2.188238 41.023121
vt 1.397076 31.760429
vt -1.122609 31.760429
vt 3.693228 6.779005
vt -2.188238 41.023121
vt -3.693228 6.779005
vt -1.122609 29.240740
vn -0.6672 0.3314 0.6672
vn -0.8957 0.2450 0.3710
vn -0.9435 0.3314 0.0000
vn 0.3710 0.2450 0.8957
vn -0.0000 0.3314 0.9435
vn 0.6672 0.3314 0.6672
vn 0.9435 0.3314 -0.0000
vn 0.8957 0.2450 0.3710
vn 0.6672 0.3314 -0.6672
vn 0.8957 0.2450 -0.3710
vn 0.3710 0.2450 -0.8957
vn 0.0000 0.3314 -0.9435
vn -0.3710 0.2450 0.8957
vn -0.8957 0.2450 -0.3710
vn -0.6672 0.3314 -0.6672
vn -0.3710 0.2450 -0.8957
vn 0.0000 0.4164 -0.9092
vn 0.6277 0.4604 -0.6277
vn 0.0000 0.4604 -0.8877
vn 0.6429 0.4164 -0.6429
vn -0.8877 0.4604 -0.0000
vn -0.6429 0.4164 0.6429
vn -0.9092 0.4164 0.0000
vn -0.6277 0.4604 0.6277
vn -0.9219 0.3874 0.0000
vn -0.6519 0.3874 0.6519
vn -0.9449 0.3273 0.0000
vn -0.6785 0.2814 0.6785
vn -0.9596 0.2814 0.0000
vn -0.6682 0.3273 0.6682
vn -0.0000 0.2814 0.9596
vn 0.0000 0.3273 0.9449
vn 0.6519 0.3874 -0.6519
vn 0.0000 0.3874 -0.9219
vn -0.6581 0.3657 0.6581
vn 0.0000 0.3657 0.9307
vn -0.0000 0.3874 0.9219
vn 0.6519 0.3874 0.6519
vn -0.0000 0.4164 0.9092
vn -0.0000 0.4604 0.8877
vn 0.6429 0.4164 0.6429
vn 0.6277 0.4604 0.6277
vn 0.6594 0.3610 -0.6594
vn 0.9092 0.4164 0.0000
vn 0.9326 0.3610 0.0000
vn -0.6785 0.2814 -0.6785
vn -0.6682 0.3273 -0.6682
vn -0.6519 0.3874 -0.6519
vn 0.8877 0.4604 0.0000
vn 0.0000 0.3610 0.9326
vn -0.6594 0.3610 0.6594
vn 0.6682 0.3273 -0.6682
vn 0.9307 0.3657 -0.0000
vn 0.6581 0.3657 -0.6581
vn 0.9449 0.3273 -0.0000
vn 0.9219 0.3874 -0.0000
vn -0.6429 0.4164 -0.6429
vn -0.6277 0.4604 -0.6277
vn 0.6785 0.2814 -0.6785
vn 0.9596 0.2814 0.0000
vn 0.0000 0.3610 -0.9326
vn 0.6785 0.2814 0.6785
vn 0.6682 0.3273 0.6682
vn 0.6594 0.3610 0.6594
vn -0.6594 0.3610 -0.6594
vn -0.9326 0.3610 0.0000
vn -0.9307 0.3657 0.0000
vn -0.6581 0.3657 -0.6581
vn -0.0000 0.3273 -0.9449
vn -0.0000 0.3657 -0.9307
vn 0.6581 0.3657 0.6581
vn 0.0000 -1.0000 0.0000
vn 0.0000 0.2814 -0.9596
vn 0.0000 0.1715 0.9852
vn 0.0000 0.2752 0.9614
vn -0.9614 0.2752 0.0000
vn -0.9852 0.1715 0.0000
vn 0.0000 0.1715 -0.9852
vn 0.0000 0.2752 -0.9614
vn 0.9852 0.1715 0.0000
vn 0.9614 0.2752 0.0000
vn -0.9990 0.0439 0.0000
vn -0.1255 0.0055 -0.9921
vn -0.1128 0.9936 0.0000
vn -0.1255 0.0055 0.9921
vn -0.1996 -0.9799 0.0000
vn 0.0000 0.0439 -0.9990
vn 0.9990 0.0439 0.0000
vn 0.0000 -0.9876 0.1571
vn 0.0000 0.9976 0.0698
vn -0.9935 0.0050 0.1134
vn 0.9935 0.0050 0.1134
vn 0.0000 0.0440 0.9990
vn -0.0000 0.0439 0.9990
usemtl foliage
s 1
f 1/1/1 2/2/2 3/3/3
f 2/2/4 4/4/5 5/5/6
f 5/6/6 6/7/7 2/2/8
f 6/8/7 7/9/9 2/2/10
f 2/2/11 7/10/9 8/11/12
f 2/2/13 1/12/1 4/13/5
f 2/2/14 9/14/15 3/15/3
f 2/2/16 8/16/12 9/17/15
f 10/18/17 11/19/18 12/20/19
f 11/19/18 10/18/17 13/21/20
f 14/22/21 15/23/22 16/24/23
f 15/23/22 14/22/21 17/25/24
f 18/26/25 1/27/1 3/28/3
f 1/27/1 18/26/25 19/29/26
f 20/30/27 21/31/28 22/32/29
f 21/31/28 20/30/27 23/33/30
f 24/34/31 23/35/30 25/36/32
f 23/35/30 24/34/31 21/37/28
f 8/38/12 26/39/33 27/40/34
f 26/39/33 8/38/12 7/41/9
f 25/42/32 28/43/35 29/44/36
f 28/43/35 25/42/32 23/45/30
f 5/46/6 30/47/37 31/48/38
f 30/47/37 5/46/6 4/49/5
f 32/50/39 33/51/24 34/52/40
f 33/51/24 32/50/39 35/53/22
f 36/54/39 17/55/24 37/56/40
f 17/55/24 36/54/39 15/57/22
f 38/58/41 37/59/40 39/60/42
f 37/59/40 38/58/41 36/61/39
f 40/62/17 41/63/18 42/64/19
f 41/63/18 40/62/17 43/65/20
f 44/66/43 45/67/44 43/68/20
f 45/67/44 44/66/43 46/69/45
f 20/70/27 47/71/46 48/72/47
f 47/71/46 20/70/27 22/73/29
f 9/74/15 27/75/34 49/76/48
f 27/75/34 9/74/15 8/77/12
f 50/78/41 51/79/49 52/80/44
f 51/79/49 50/78/41 53/81/42
f 18/82/25 9/83/15 49/84/48
f 9/83/15 18/82/25 3/85/3
f 54/86/50 15/87/22 36/88/39
f 15/87/22 54/86/50 55/89/51
f 56/90/52 57/91/53 58/92/54
f 57/91/53 56/90/52 59/93/55
f 7/94/9 60/95/56 26/96/33
f 60/95/56 7/94/9 6/97/7
f 43/98/20 61/99/49 41/100/18
f 61/99/49 43/98/20 45/101/44
f 62/102/21 35/103/22 63/104/23
f 35/103/22 62/102/21 33/105/24
f 14/106/21 64/107/57 65/108/58
f 64/107/57 14/106/21 16/109/23
f 66/110/59 59/111/55 56/112/52
f 59/111/55 66/110/59 67/113/60
f 68/114/61 13/115/20 10/116/17
f 13/115/20 68/114/61 69/117/43
f 70/118/62 25/119/32 71/120/63
f 25/119/32 70/118/62 24/121/31
f 50/122/41 34/123/40 53/124/42
f 34/123/40 50/122/41 32/125/39
f 72/126/64 36/127/39 38/128/41
f 36/127/39 72/126/64 54/129/50
f 16/130/23 73/131/65 64/132/57
f 73/131/65 16/130/23 74/133/66
f 70/134/62 59/135/55 67/136/60
f 59/135/55 70/134/62 71/137/63
f 75/138/67 23/139/30 20/140/27
f 23/139/30 75/138/67 28/141/35
f 5/142/6 60/143/56 6/144/7
f 60/143/56 5/142/6 31/145/38
f 63/146/23 76/147/65 77/148/57
f 76/147/65 63/146/23 78/149/66
f 62/150/21 77/151/57 79/152/58
f 77/151/57 62/150/21 63/153/23
f 4/154/5 19/155/26 30/156/37
f 19/155/26 4/154/5 1/157/1
f 38/158/41 61/159/49 45/160/44
f 61/159/49 38/158/41 39/161/42
f 80/162/64 32/163/39 50/164/41
f 32/163/39 80/162/64 81/165/50
f 75/166/67 48/167/47 82/168/68
f 48/167/47 75/166/67 20/169/27
f 83/170/69 58/171/54 84/172/70
f 58/171/54 83/170/69 56/173/52
f 72/174/64 45/175/44 46/176/45
f 45/175/44 72/174/64 38/177/41
f 71/178/63 29/179/36 85/180/71
f 29/179/36 71/178/63 25/181/32
f 35/182/22 78/183/66 63/184/23
f 78/183/66 35/182/22 86/185/51
f 48/186/47 84/187/70 82/188/68
f 84/187/70 48/186/47 83/189/69
f 87/190/61 43/191/20 40/192/17
f 43/191/20 87/190/61 44/193/43
f 76/194/65 10/195/17 77/196/57
f 10/195/17 76/194/65 68/197/61
f 16/198/23 55/199/51 74/200/66
f 55/199/51 16/198/23 15/201/22
f 13/202/20 51/203/49 11/204/18
f 51/203/49 13/202/20 52/205/44
f 31/206/72 26/207/72 60/208/72
f 26/207/72 31/206/72 67/209/72
f 67/209/72 31/206/72 70/210/72
f 66/211/72 26/207/72 67/209/72
f 26/207/72 66/211/72 27/212/72
f 27/212/72 66/211/72 88/213/72
f 70/210/72 31/206/72 30/214/72
f 70/210/72 30/214/72 24/215/72
f 24/215/72 30/214/72 21/216/72
f 27/212/72 88/213/72 49/217/72
f 21/216/72 30/214/72 19/218/72
f 49/217/72 88/213/72 47/219/72
f 21/216/72 19/218/72 22/220/72
f 49/217/72 47/219/72 22/220/72
f 49/217/72 22/220/72 19/218/72
f 49/217/72 19/218/72 18/221/72
f 77/222/57 12/223/19 79/224/58
f 12/223/19 77/222/57 10/225/17
f 89/226/45 50/227/41 52/228/44
f 50/227/41 89/226/45 80/229/64
f 69/230/43 52/231/44 13/232/20
f 52/231/44 69/230/43 89/233/45
f 47/234/46 83/235/69 48/236/47
f 83/235/69 47/234/46 88/237/73
f 73/238/65 40/239/17 64/240/57
f 40/239/17 73/238/65 87/241/61
f 71/242/63 57/243/53 59/244/55
f 57/243/53 71/242/63 85/245/71
f 64/246/57 42/247/19 65/248/58
f 42/247/19 64/246/57 40/249/17
f 88/250/73 56/251/52 83/252/69
f 56/251/52 88/250/73 66/253/59
f 81/254/50 35/255/22 32/256/39
f 35/255/22 81/254/50 86/257/51
f 53/258/72 11/259/72 51/260/72
f 11/259/72 53/258/72 34/261/72
f 11/259/72 34/261/72 90/262/72
f 90/262/72 34/261/72 91/263/72
f 92/264/72 11/259/72 90/262/72
f 11/259/72 92/264/72 12/265/72
f 91/263/72 34/261/72 33/266/72
f 12/265/72 92/264/72 93/267/72
f 91/263/72 33/266/72 93/267/72
f 12/265/72 93/267/72 79/268/72
f 79/268/72 93/267/72 33/266/72
f 79/268/72 33/266/72 62/269/72
f 85/270/72 46/271/72 57/272/72
f 46/271/72 58/273/72 57/272/72
f 46/271/72 85/270/72 72/274/72
f 58/273/72 46/271/72 44/275/72
f 72/274/72 85/270/72 29/276/72
f 72/274/72 29/276/72 54/277/72
f 54/277/72 29/276/72 55/278/72
f 55/278/72 29/276/72 28/279/72
f 58/273/72 44/275/72 84/280/72
f 84/280/72 44/275/72 87/281/72
f 84/280/72 87/281/72 73/282/72
f 84/280/72 73/282/72 82/283/72
f 55/278/72 28/279/72 74/284/72
f 82/283/72 73/282/72 74/284/72
f 74/284/72 28/279/72 75/285/72
f 82/283/72 74/284/72 75/285/72
f 80/286/72 37/287/72 81/288/72
f 81/288/72 37/287/72 86/289/72
f 80/286/72 39/290/72 37/287/72
f 86/289/72 37/287/72 17/291/72
f 89/292/72 39/290/72 80/286/72
f 39/290/72 89/292/72 61/293/72
f 89/292/72 41/294/72 61/293/72
f 41/294/72 89/292/72 69/295/72
f 86/289/72 17/291/72 78/296/72
f 78/296/72 17/291/72 14/297/72
f 65/298/72 78/296/72 14/297/72
f 65/298/72 76/299/72 78/296/72
f 41/294/72 69/295/72 42/300/72
f 42/300/72 76/299/72 65/298/72
f 42/300/72 69/295/72 68/301/72
f 42/300/72 68/301/72 76/299/72
usemtl wood
f 94/302/74 95/303/75 96/304/75
f 95/303/75 94/302/74 97/305/74
f 95/306/76 98/307/77 99/308/76
f 98/307/77 95/306/76 97/309/77
f 98/310/78 100/311/79 99/312/79
f 100/311/79 98/310/78 101/313/78
f 101/314/80 96/315/81 100/316/81
f 96/315/81 101/314/80 94/317/80
f 95/318/72 100/319/72 96/320/72
f 100/319/72 95/318/72 99/321/72
f 102/322/82 103/323/82 104/324/82
f 103/323/82 102/322/82 105/325/82
f 104/326/83 106/327/83 107/328/83
f 106/327/83 104/326/83 103/329/83
f 103/330/84 108/331/84 106/332/84
f 108/331/84 103/330/84 105/333/84
f 108/334/85 102/335/85 109/336/85
f 102/335/85 108/334/85 105/337/85
f 102/338/86 107/339/86 109/340/86
f 107/339/86 102/338/86 104/341/86
f 93/342/87 101/343/78 98/344/78
f 101/343/78 93/342/87 92/345/87
f 92/346/88 94/347/80 101/348/80
f 94/347/80 92/346/88 90/349/88
f 110/350/89 111/351/89 112/352/89
f 111/351/89 110/350/89 113/353/89
f 114/354/90 115/355/90 116/356/90
f 115/355/90 114/354/90 117/357/90
f 111/358/91 117/359/91 114/360/91
f 117/359/91 111/358/91 113/361/91
f 115/362/92 112/363/92 116/364/92
f 112/363/92 115/362/92 110/365/92
f 115/366/93 113/367/93 110/368/93
f 113/367/93 115/366/93 117/369/93
f 108/370/82 97/371/77 91/372/82
f 93/373/82 108/370/82 91/372/82
f 109/374/82 97/371/77 108/370/82
f 93/373/82 106/375/82 108/370/82
f 107/376/82 97/371/77 109/374/82
f 98/377/77 106/375/82 93/373/82
f 97/371/77 107/376/82 98/377/77
f 106/375/82 98/377/77 107/376/82
f 112/378/94 90/379/94 116/380/94
f 116/380/94 90/379/94 114/381/94
f 112/378/94 94/382/74 90/379/94
f 91/383/94 114/381/94 90/379/94
f 94/382/74 112/378/94 97/384/74
f 91/383/94 111/385/94 114/381/94
f 97/384/74 111/385/94 91/383/94
f 111/385/94 97/384/74 112/378/94
